<svg version="1.1" xmlns="http://www.w3.org/2000/svg" viewBox="0 0 250 253.04784390588316" width="250" height="253.04784390588316">
  <!-- svg-source:excalidraw -->
  
  <defs>
    <style>
      @font-face {
        font-family: "Virgil";
        src: url("https://excalidraw.com/FG_Virgil.woff2");
      }
      @font-face {
        font-family: "Cascadia";
        src: url("https://excalidraw.com/Cascadia.woff2");
      }
    </style>
  </defs>
  <g transform="translate(10 79.5) rotate(0 17 13)"><text x="0" y="18" font-family="Virgil, Segoe UI Emoji" font-size="20px" fill="#ddd" text-anchor="start" style="white-space: pre;" direction="ltr">010</text></g><g transform="translate(46 78.5) rotate(353.246425964469 9.5 13)"><text x="0" y="18" font-family="Virgil, Segoe UI Emoji" font-size="20px" fill="#ddd" text-anchor="start" style="white-space: pre;" direction="ltr">10</text></g><g transform="translate(65 71.5) rotate(336.5290068818391 15.5 13)"><text x="0" y="18" font-family="Virgil, Segoe UI Emoji" font-size="20px" fill="#ddd" text-anchor="start" style="white-space: pre;" direction="ltr">00</text></g><g transform="translate(93 59.5) rotate(305.44571032759825 3.5 13)"><text x="0" y="18" font-family="Virgil, Segoe UI Emoji" font-size="20px" fill="#ddd" text-anchor="start" style="white-space: pre;" direction="ltr">11</text></g><g transform="translate(93 46.5) rotate(285.73200478510734 9.5 13)"><text x="0" y="18" font-family="Virgil, Segoe UI Emoji" font-size="20px" fill="#ddd" text-anchor="start" style="white-space: pre;" direction="ltr">01</text></g><g transform="translate(97 26.5) rotate(273.1363583683326 9.5 13)"><text x="0" y="18" font-family="Virgil, Segoe UI Emoji" font-size="20px" fill="#ddd" text-anchor="start" style="white-space: pre;" direction="ltr">01</text></g><g transform="translate(98 6.5) rotate(270 9.5 13)"><text x="0" y="18" font-family="Virgil, Segoe UI Emoji" font-size="20px" fill="#ddd" text-anchor="start" style="white-space: pre;" direction="ltr">01</text></g><g transform="translate(58.103865265929585 96.87385277650225) rotate(77.58787506281084 17 13)"><text x="0" y="18" font-family="Virgil, Segoe UI Emoji" font-size="20px" fill="#ddd" text-anchor="start" style="white-space: pre;" direction="ltr">010</text></g><g transform="translate(72.70633924591937 124.49277497422042) rotate(430.83430102727993 9.5 13)"><text x="0" y="18" font-family="Virgil, Segoe UI Emoji" font-size="20px" fill="#ddd" text-anchor="start" style="white-space: pre;" direction="ltr">10</text></g><g transform="translate(78.91627709049942 147.40385128746908) rotate(414.11688194464995 15.5 13)"><text x="0" y="18" font-family="Virgil, Segoe UI Emoji" font-size="20px" fill="#ddd" text-anchor="start" style="white-space: pre;" direction="ltr">00</text></g><g transform="translate(106.07487095350734 160.4505762441916) rotate(383.0335853904091 3.5 13)"><text x="0" y="18" font-family="Virgil, Segoe UI Emoji" font-size="20px" fill="#ddd" text-anchor="start" style="white-space: pre;" direction="ltr">11</text></g><g transform="translate(114.06067157248901 163.5160910535044) rotate(363.3198798479182 9.5 13)"><text x="0" y="18" font-family="Virgil, Segoe UI Emoji" font-size="20px" fill="#ddd" text-anchor="start" style="white-space: pre;" direction="ltr">01</text></g><g transform="translate(212.05342190072543 216.17864170411036) rotate(246.68690235809788 9.5 13)"><text x="0" y="18" font-family="Virgil, Segoe UI Emoji" font-size="20px" fill="#ddd" text-anchor="start" style="white-space: pre;" direction="ltr">10</text></g><g transform="translate(192.97675083257843 192.93831546355676) rotate(608.6347613587756 15.5 13)"><text x="0" y="18" font-family="Virgil, Segoe UI Emoji" font-size="20px" fill="#ddd" text-anchor="start" style="white-space: pre;" direction="ltr">00</text></g><g transform="translate(193.57275954147076 176.50819122080378) rotate(577.5514648045347 3.5 13)"><text x="0" y="18" font-family="Virgil, Segoe UI Emoji" font-size="20px" fill="#ddd" text-anchor="start" style="white-space: pre;" direction="ltr">11</text></g><g transform="translate(174.80200278553525 170.03456998684567) rotate(557.8377592620437 9.5 13)"><text x="0" y="18" font-family="Virgil, Segoe UI Emoji" font-size="20px" fill="#ddd" text-anchor="start" style="white-space: pre;" direction="ltr">01</text></g><g transform="translate(154.96248491922051 165.30238964030775) rotate(545.2421128452688 9.5 13)"><text x="0" y="18" font-family="Virgil, Segoe UI Emoji" font-size="20px" fill="#ddd" text-anchor="start" style="white-space: pre;" direction="ltr">01</text></g><g transform="translate(135.01273482599083 163.5681834190978) rotate(542.1057544769365 9.5 13)"><text x="0" y="18" font-family="Virgil, Segoe UI Emoji" font-size="20px" fill="#ddd" text-anchor="start" style="white-space: pre;" direction="ltr">01</text></g><g transform="translate(81 77.5) rotate(0 79.5 13)"><text x="0" y="18" font-family="Virgil, Segoe UI Emoji" font-size="20px" fill="#ddd" text-anchor="start" style="white-space: pre;" direction="ltr">111000100101111010</text></g></svg>